<svg width="706" height="157" viewBox="0 0 706 157" fill="none" xmlns="http://www.w3.org/2000/svg">
<g clip-path="url(#clip0_10796_42357)">
<path d="M260.667 74.9352C266.562 69.5291 270.276 61.8211 270.276 53.2237C270.276 36.9357 256.987 23.6821 240.647 23.6821H188.694V132.623H241.484C259.237 132.623 273.625 118.288 273.625 100.588C273.625 90.0722 268.515 80.7598 260.667 74.9178V74.9352ZM202.942 37.8949H240.629C249.105 37.8949 256.011 44.7658 256.011 53.2237C256.011 61.6816 249.122 68.5526 240.629 68.5526H202.942V37.8949ZM241.466 118.411H202.942V82.7653H241.466C251.337 82.7653 259.359 90.7523 259.359 100.588C259.359 110.423 251.354 118.411 241.466 118.411Z" fill="#040000"/>
<path d="M342.267 23.6821H292.146L287.803 37.9298H342.267C353.463 37.9298 362.566 47.0329 362.566 58.2287C362.566 69.4245 353.463 78.5276 342.267 78.5276H287.803V132.955H302.069V92.7753H342.267C361.328 92.7753 376.832 77.272 376.832 58.2287C376.832 39.1854 361.328 23.6821 342.267 23.6821Z" fill="#040000"/>
<path d="M348.597 101.442L361.433 132.658H376.832L364.031 101.495L348.597 101.442Z" fill="#040000"/>
<path d="M407.159 83.1141H461.396V68.5874H407.159V38.2088H466.418V23.6821H392.894V132.955H468.284V118.428H407.159V83.1141Z" fill="#040000"/>
<path d="M527.962 115.742L493.031 23.6821H477.736L519.19 132.955H536.804L578.013 23.6821H562.196L527.962 115.742Z" fill="#040000"/>
<path d="M603.37 23.6821H589.104V132.955H603.37V23.6821Z" fill="#040000"/>
<path d="M686.591 75.2491L646.289 64.8206C639.784 62.6582 635.738 55.9965 637.133 48.9686C638.441 42.3941 644.649 37.9472 651.346 37.9472H670.477C681.813 37.9472 691.038 47.1724 691.038 58.5252H705.304C705.304 39.3074 689.678 23.6821 670.477 23.6821H651.608C637.063 23.6821 624.228 34.3373 622.745 48.8117C621.385 62.0827 629.39 74.2202 641.772 78.3532L682.929 89.0608C690.777 90.8744 691.387 99.2451 691.003 105.75C690.585 113.109 684.115 118.69 676.755 118.69H658.828C646.707 118.69 636.854 108.819 636.854 96.699H622.588C622.588 116.684 638.842 132.955 658.828 132.955H677.261C692.992 132.955 705.74 119.91 705.286 103.866C704.938 91.8859 702.496 81.5271 686.591 75.2491Z" fill="#040000"/>
<path d="M78.3185 21.8159C60.9743 21.8159 45.453 29.6286 35.1054 41.923L40.7306 46.6664L47.5537 52.4038C54.9324 43.6495 65.9744 38.0865 78.3185 38.0865C97.7115 38.0865 113.893 51.8109 117.695 70.0695C118.25 72.7377 118.545 75.493 118.545 78.3181C118.545 86.776 115.924 94.641 111.462 101.111C104.222 111.644 92.0689 118.55 78.3185 118.55C76.4782 118.55 74.6552 118.428 72.8843 118.184C55.0019 115.777 40.8521 101.599 38.4562 83.7242L29.6191 84.9275C32.5533 106.779 49.8454 124.078 71.6864 127.025L70.6968 134.332C73.1968 134.681 75.749 134.838 78.3359 134.838C97.6594 134.838 114.709 125.142 124.917 110.353L118.841 106.186C124.292 98.2683 127.487 88.6769 127.487 78.3356C127.487 74.8826 127.122 71.4995 126.462 68.2558L133.685 66.7387C128.337 41.086 105.594 21.8159 78.3533 21.8159H78.3185Z" fill="#040000"/>
<path d="M152.765 53.9388L140.855 60.7749C142.417 66.3554 143.251 72.2323 143.251 78.3185C143.251 114.19 114.17 143.261 78.301 143.261C42.4318 143.261 13.3685 114.19 13.3685 78.3185C13.3685 72.1451 14.2365 66.1635 15.8512 60.4959L3.95845 53.6772C1.38893 61.4201 0 69.7036 0 78.3185C0 121.567 35.0705 156.637 78.3183 156.637C121.566 156.637 156.637 121.567 156.637 78.3185C156.637 69.8083 155.282 61.612 152.765 53.9388Z" fill="#040000"/>
<path d="M78.3181 13.3757C106.93 13.3757 131.219 31.8784 139.865 57.566L151.654 50.7997C140.542 21.1186 111.895 0 78.3181 0C44.7407 0 16.2676 20.9965 5.06934 50.5555L16.8405 57.3044C25.5908 31.7563 49.8103 13.3757 78.3181 13.3757Z" fill="#040000"/>
<path d="M102.521 73.2435C102.868 74.8828 103.042 76.5744 103.042 78.3183C103.042 83.5151 101.444 88.3457 98.7012 92.3218C94.2393 98.7916 86.7911 103.029 78.3187 103.029C77.1902 103.029 76.0617 102.96 74.9679 102.803C63.978 101.32 55.2798 92.6182 53.8214 81.6317C53.6651 80.5505 53.5957 79.4344 53.5957 78.3183C53.5957 72.2495 55.7833 66.7039 59.4119 62.3965C63.9432 57.0079 70.7316 53.5898 78.3187 53.5898C90.2288 53.5898 100.194 62.0303 102.521 73.2435Z" fill="#040000"/>
</g>
<defs>
<clipPath id="clip0_10796_42357">
<rect width="705.287" height="156.637" fill="white"/>
</clipPath>
</defs>
</svg>
